<svg width="20" height="21" viewBox="0 0 20 21" fill="none" xmlns="http://www.w3.org/2000/svg">
<path d="M10 5.5C9.40666 5.5 8.82664 5.67595 8.33329 6.00559C7.83994 6.33524 7.45543 6.80377 7.22836 7.35195C7.0013 7.90013 6.94189 8.50333 7.05765 9.08527C7.1734 9.66721 7.45912 10.2018 7.87868 10.6213C8.29824 11.0409 8.83279 11.3266 9.41473 11.4424C9.99667 11.5581 10.5999 11.4987 11.1481 11.2716C11.6962 11.0446 12.1648 10.6601 12.4944 10.1667C12.8241 9.67336 13 9.09334 13 8.5C13 7.70435 12.6839 6.94129 12.1213 6.37868C11.5587 5.81607 10.7957 5.5 10 5.5Z" fill="#F27B21"/>
<path d="M10 0.5C8.02219 0.5 6.08879 1.08649 4.4443 2.1853C2.79981 3.28412 1.51809 4.8459 0.761209 6.67316C0.00433283 8.50043 -0.1937 10.5111 0.192152 12.4509C0.578004 14.3907 1.53041 16.1725 2.92894 17.5711C4.32746 18.9696 6.10929 19.922 8.0491 20.3078C9.98891 20.6937 11.9996 20.4957 13.8268 19.7388C15.6541 18.9819 17.2159 17.7002 18.3147 16.0557C19.4135 14.4112 20 12.4778 20 10.5C19.997 7.84876 18.9424 5.30698 17.0677 3.43227C15.193 1.55756 12.6512 0.503025 10 0.5ZM15.7086 16.8757C15.6943 15.9388 15.3126 15.045 14.6457 14.3868C13.9787 13.7287 13.0799 13.3589 12.1429 13.3571H7.85715C6.92013 13.3589 6.02132 13.7287 5.35435 14.3868C4.68739 15.045 4.30567 15.9388 4.29143 16.8757C2.99612 15.7191 2.08267 14.1963 1.67203 12.509C1.26139 10.8218 1.37293 9.04953 1.99189 7.42704C2.61084 5.80455 3.70802 4.40833 5.13813 3.42326C6.56823 2.43819 8.26382 1.91073 10.0004 1.91073C11.7369 1.91073 13.4325 2.43819 14.8626 3.42326C16.2927 4.40833 17.3899 5.80455 18.0088 7.42704C18.6278 9.04953 18.7393 10.8218 18.3287 12.509C17.9181 14.1963 17.0046 15.7191 15.7093 16.8757H15.7086Z" fill="#065166"/>
</svg>
