<svg width="20" height="20" viewBox="0 0 20 20" fill="none" xmlns="http://www.w3.org/2000/svg">
<path d="M14 0H6C2.691 0 0 2.691 0 6V19C0 19.2652 0.105357 19.5196 0.292893 19.7071C0.48043 19.8946 0.734784 20 1 20H14C17.309 20 20 17.309 20 14V6C20 2.691 17.309 0 14 0ZM18 14C18 16.206 16.206 18 14 18H2V6C2 3.794 3.794 2 6 2H14C16.206 2 18 3.794 18 6V14Z" fill="#828282"/>
<path d="M5 12.9982V15H7L12.5318 9.47026L10.5328 7.46946L5 12.9982ZM13.4742 8.52694L11.4752 6.52413L12.999 5L15 7.0018L13.4742 8.52694Z" fill="#828282"/>
</svg>
