<svg width="22" height="21" viewBox="0 0 22 21" fill="none" xmlns="http://www.w3.org/2000/svg">
<path d="M4.60714 5.5C4.1809 5.5 3.77212 5.66297 3.47072 5.95307C3.16932 6.24316 3 6.63662 3 7.04688V8.76563C3 9.17588 3.16932 9.56934 3.47072 9.85943C3.77212 10.1495 4.1809 10.3125 4.60714 10.3125H6.39286C6.8191 10.3125 7.22788 10.1495 7.52928 9.85943C7.83068 9.56934 8 9.17588 8 8.76563V7.04688C8 6.63662 7.83068 6.24316 7.52928 5.95307C7.22788 5.66297 6.8191 5.5 6.39286 5.5H4.60714ZM4.60714 11.6875C4.1809 11.6875 3.77212 11.8505 3.47072 12.1406C3.16932 12.4307 3 12.8241 3 13.2344V14.9531C3 15.1563 3.04157 15.3574 3.12234 15.5451C3.2031 15.7328 3.32148 15.9033 3.47072 16.0469C3.61996 16.1906 3.79713 16.3045 3.99212 16.3823C4.1871 16.46 4.39609 16.5 4.60714 16.5H6.39286C6.60391 16.5 6.8129 16.46 7.00788 16.3823C7.20287 16.3045 7.38004 16.1906 7.52928 16.0469C7.67852 15.9033 7.7969 15.7328 7.87766 15.5451C7.95843 15.3574 8 15.1563 8 14.9531V13.2344C8 12.8241 7.83068 12.4307 7.52928 12.1406C7.22788 11.8505 6.8191 11.6875 6.39286 11.6875H4.60714Z" fill="#065166"/>
<path d="M10.1528 6.64645C10.2507 6.55268 10.3834 6.5 10.5217 6.5H17.4783C17.6166 6.5 17.7493 6.55268 17.8472 6.64645C17.945 6.74021 18 6.86739 18 7C18 7.13261 17.945 7.25979 17.8472 7.35355C17.7493 7.44732 17.6166 7.5 17.4783 7.5H10.5217C10.3834 7.5 10.2507 7.44732 10.1528 7.35355C10.055 7.25979 10 7.13261 10 7C10 6.86739 10.055 6.74021 10.1528 6.64645Z" fill="#F27B21"/>
<path d="M10.1528 8.64645C10.2507 8.55268 10.3834 8.5 10.5217 8.5H15.3913C15.5297 8.5 15.6624 8.55268 15.7602 8.64645C15.8581 8.74022 15.913 8.86739 15.913 9C15.913 9.13261 15.8581 9.25978 15.7602 9.35355C15.6624 9.44732 15.5297 9.5 15.3913 9.5H10.5217C10.3834 9.5 10.2507 9.44732 10.1528 9.35355C10.055 9.25978 10 9.13261 10 9C10 8.86739 10.055 8.74022 10.1528 8.64645Z" fill="#F27B21"/>
<path d="M10.1528 12.6464C10.2507 12.5527 10.3834 12.5 10.5217 12.5H17.4783C17.6166 12.5 17.7493 12.5527 17.8472 12.6464C17.945 12.7402 18 12.8674 18 13C18 13.1326 17.945 13.2598 17.8472 13.3536C17.7493 13.4473 17.6166 13.5 17.4783 13.5H10.5217C10.3834 13.5 10.2507 13.4473 10.1528 13.3536C10.055 13.2598 10 13.1326 10 13C10 12.8674 10.055 12.7402 10.1528 12.6464Z" fill="#F27B21"/>
<path d="M10.1528 14.6464C10.2507 14.5527 10.3834 14.5 10.5217 14.5H15.3913C15.5297 14.5 15.6624 14.5527 15.7602 14.6464C15.8581 14.7402 15.913 14.8674 15.913 15C15.913 15.1326 15.8581 15.2598 15.7602 15.3536C15.6624 15.4473 15.5297 15.5 15.3913 15.5H10.5217C10.3834 15.5 10.2507 15.4473 10.1528 15.3536C10.055 15.2598 10 15.1326 10 15C10 14.8674 10.055 14.7402 10.1528 14.6464Z" fill="#F27B21"/>
<rect x="1" y="0.5" width="20" height="20" stroke="#065166" stroke-linejoin="round"/>
</svg>
