<svg width="16" height="17" viewBox="0 0 16 17" fill="none" xmlns="http://www.w3.org/2000/svg">
<path d="M15.6351 8.13512H8.36491V0.864943C8.36491 0.663511 8.20143 0.500031 8 0.500031C7.79857 0.500031 7.63509 0.663511 7.63509 0.864943V8.13512H0.364912C0.163481 8.13512 0 8.2986 0 8.50003C0 8.70146 0.163481 8.86494 0.364912 8.86494H7.63509V16.1351C7.63509 16.3366 7.79857 16.5 8 16.5C8.20143 16.5 8.36491 16.3366 8.36491 16.1351V8.86494H15.6351C15.8365 8.86494 16 8.70146 16 8.50003C16 8.2986 15.8365 8.13512 15.6351 8.13512Z" fill="#3949AB"/>
</svg>
