<svg width="20" height="21" viewBox="0 0 20 21" fill="none" xmlns="http://www.w3.org/2000/svg">
<path d="M1.76471 0.5C1.29668 0.5 0.847817 0.697544 0.51687 1.04918C0.185924 1.40081 0 1.87772 0 2.375V19.5625C0 20.08 0.395294 20.5 0.882353 20.5H2.64706C2.88107 20.5 3.1055 20.4012 3.27098 20.2254C3.43645 20.0496 3.52941 19.8111 3.52941 19.5625V17.045C4.1759 17.661 5.01398 18.0012 5.88235 18H14.1176C15.0537 18 15.9514 17.6049 16.6133 16.9017C17.2752 16.1984 17.6471 15.2446 17.6471 14.25V5.5L17.6435 5.395C18.0372 5.2488 18.3695 4.95918 18.5813 4.57751C18.7932 4.19584 18.871 3.74678 18.8009 3.30997C18.7308 2.87316 18.5174 2.47683 18.1985 2.19128C17.8796 1.90572 17.4759 1.74938 17.0588 1.75H3.42941C3.30772 1.38428 3.08226 1.06766 2.78411 0.843785C2.48596 0.61991 2.1298 0.499797 1.76471 0.5ZM16.4706 5.5V14.25C16.4706 14.913 16.2227 15.5489 15.7814 16.0178C15.3402 16.4866 14.7417 16.75 14.1176 16.75H5.88235C5.25831 16.75 4.65983 16.4866 4.21857 16.0178C3.77731 15.5489 3.52941 14.913 3.52941 14.25V5.5H16.4706ZM17.0588 4.25H2.35294V19.25H1.17647V2.375C1.17647 2.20924 1.23845 2.05027 1.34876 1.93306C1.45908 1.81585 1.6087 1.75 1.76471 1.75C1.92072 1.75 2.07034 1.81585 2.18065 1.93306C2.29097 2.05027 2.35294 2.20924 2.35294 2.375V3H17.0588C17.2148 3 17.3645 3.06585 17.4748 3.18306C17.5851 3.30027 17.6471 3.45924 17.6471 3.625C17.6471 3.79076 17.5851 3.94973 17.4748 4.06694C17.3645 4.18415 17.2148 4.25 17.0588 4.25Z" fill="#065166"/>
<path d="M6.47058 14.2549V11.0662C6.47054 10.8895 6.50574 10.7148 6.57388 10.5536C6.64202 10.3925 6.74154 10.2485 6.86588 10.1312L9.6094 7.54365C9.71705 7.44208 9.85602 7.38599 9.99999 7.38599C10.144 7.38599 10.2829 7.44208 10.3906 7.54365L13.1341 10.1324C13.2584 10.2497 13.358 10.3937 13.4261 10.5549C13.4942 10.716 13.5294 10.8907 13.5294 11.0674V14.2549C13.5294 14.4207 13.4674 14.5796 13.3571 14.6968C13.2468 14.8141 13.0972 14.8799 12.9412 14.8799H11.7647C11.6087 14.8799 11.4591 14.8141 11.3488 14.6968C11.2384 14.5796 11.1765 14.4207 11.1765 14.2549V13.0049C11.1765 12.8391 11.1145 12.6802 11.0042 12.563C10.8939 12.4458 10.7442 12.3799 10.5882 12.3799H9.41176C9.25575 12.3799 9.10613 12.4458 8.99581 12.563C8.8855 12.6802 8.82352 12.8391 8.82352 13.0049V14.2549C8.82352 14.4207 8.76155 14.5796 8.65123 14.6968C8.54092 14.8141 8.3913 14.8799 8.23529 14.8799H7.05882C6.90281 14.8799 6.75319 14.8141 6.64287 14.6968C6.53256 14.5796 6.47058 14.4207 6.47058 14.2549Z" fill="#F27B21"/>
</svg>
