<svg width="20" height="18" viewBox="0 0 20 18" fill="none" xmlns="http://www.w3.org/2000/svg">
<path d="M7.61829 16.9879C6.23998 16.5764 4.9917 15.815 3.99496 14.7779C4.31566 14.3976 4.51557 13.9301 4.56912 13.4355C4.62267 12.9409 4.52742 12.4415 4.29556 12.0013C4.0637 11.5612 3.70577 11.2002 3.26758 10.9645C2.82939 10.7289 2.33086 10.6294 1.83579 10.6788C1.72301 10.1263 1.66633 9.56385 1.66663 9C1.66663 8.12917 1.79996 7.28917 2.04829 6.5H2.08329C2.50819 6.50014 2.92611 6.39198 3.2976 6.18573C3.66908 5.97948 3.98187 5.68196 4.20643 5.32125C4.43099 4.96054 4.55991 4.54854 4.58101 4.12417C4.60211 3.6998 4.51471 3.27705 4.32704 2.89584C5.30396 1.98618 6.4854 1.32493 7.77163 0.967918C7.98095 1.37892 8.2999 1.724 8.69317 1.96498C9.08645 2.20596 9.53872 2.33345 9.99996 2.33334C10.4612 2.33345 10.9135 2.20596 11.3067 1.96498C11.7 1.724 12.019 1.37892 12.2283 0.967918C13.5145 1.32493 14.696 1.98618 15.6729 2.89584C15.4838 3.27971 15.3965 3.70569 15.4192 4.13298C15.4419 4.56028 15.574 4.97459 15.8026 5.33626C16.0313 5.69794 16.349 5.99486 16.7252 6.19862C17.1015 6.40238 17.5238 6.50615 17.9516 6.5C18.2054 7.30905 18.3341 8.1521 18.3333 9C18.3333 9.575 18.275 10.1367 18.1641 10.6792C17.6691 10.6298 17.1705 10.7294 16.7323 10.965C16.2941 11.2006 15.9362 11.5616 15.7044 12.0018C15.4725 12.442 15.3772 12.9413 15.4308 13.4359C15.4843 13.9306 15.6843 14.398 16.005 14.7783C15.0082 15.8153 13.7599 16.5765 12.3816 16.9879C12.2198 16.4835 11.9019 16.0434 11.4739 15.7312C11.0459 15.419 10.5297 15.2508 9.99996 15.2508C9.47017 15.2508 8.95406 15.419 8.52603 15.7312C8.098 16.0434 7.78015 16.4835 7.61829 16.9879Z" stroke="#333333" stroke-width="1.66667" stroke-linejoin="round"/>
<path d="M9.99992 11.9167C10.3829 11.9167 10.7622 11.8412 11.1161 11.6947C11.4699 11.5481 11.7915 11.3332 12.0623 11.0624C12.3332 10.7916 12.548 10.47 12.6946 10.1162C12.8411 9.7623 12.9166 9.38302 12.9166 9C12.9166 8.61698 12.8411 8.23771 12.6946 7.88384C12.548 7.52998 12.3332 7.20845 12.0623 6.93761C11.7915 6.66677 11.4699 6.45193 11.1161 6.30535C10.7622 6.15878 10.3829 6.08334 9.99992 6.08334C9.22637 6.08334 8.48451 6.39063 7.93752 6.93761C7.39054 7.48459 7.08325 8.22645 7.08325 9C7.08325 9.77355 7.39054 10.5154 7.93752 11.0624C8.48451 11.6094 9.22637 11.9167 9.99992 11.9167V11.9167Z" stroke="#333333" stroke-width="1.66667" stroke-linejoin="round"/>
</svg>
