<svg width="20" height="22" viewBox="0 0 20 22" fill="none" xmlns="http://www.w3.org/2000/svg">
<path d="M15.1368 7.60813V5.23813C15.4511 5.09131 15.7171 4.85818 15.9039 4.56593C16.0907 4.27368 16.1905 3.93434 16.1918 3.5875V3.53188C16.1905 3.04793 15.9977 2.58418 15.6555 2.24198C15.3133 1.89978 14.8495 1.70694 14.3656 1.70563H14.3099C13.8255 1.70628 13.3611 1.8988 13.0182 2.24106C12.6754 2.58332 12.4821 3.04744 12.4806 3.53188V3.5875C12.4824 3.93206 12.5814 4.26911 12.7663 4.5599C12.9512 4.85068 13.2143 5.08338 13.5256 5.23125L13.5356 5.2375V7.61375C12.6288 7.75139 11.775 8.1278 11.0618 8.70438L11.0718 8.69813L4.54807 3.61688C5.13744 1.41625 2.26619 0.00687534 0.886193 1.82C-0.497557 3.63 1.61557 6.02563 3.58494 4.88L3.57494 4.88625L9.98744 9.87625C9.42066 10.7275 9.11939 11.7279 9.12182 12.7506C9.12182 13.8669 9.47682 14.9056 10.0787 15.755L10.0687 15.7388L8.11557 17.6887C7.95932 17.64 7.79682 17.6138 7.63369 17.6106H7.63057C6.12369 17.6106 5.36494 19.4369 6.43244 20.5044C7.49994 21.5688 9.32619 20.8138 9.32619 19.3063C9.32274 19.137 9.29431 18.9691 9.24182 18.8081L9.24494 18.8213L11.1756 16.8906C11.8054 17.3711 12.5364 17.7017 13.3131 17.8574C14.0898 18.0132 14.8917 17.9899 15.6581 17.7894C16.4235 17.5877 17.1329 17.2143 17.7324 16.6975C18.332 16.1806 18.8058 15.534 19.118 14.8066C19.4302 14.0792 19.5726 13.2902 19.5342 12.4996C19.4959 11.709 19.2779 10.9375 18.8968 10.2438C18.5157 9.55008 17.9813 8.95257 17.3342 8.49679C16.6871 8.04101 15.9446 7.73899 15.1631 7.61375L15.1306 7.6075L15.1368 7.60813ZM14.3324 15.4237C11.9531 15.4175 10.7681 12.5394 12.4543 10.86C14.1374 9.18 17.0118 10.3719 17.0118 12.7513V12.7544C17.0118 13.1052 16.9427 13.4526 16.8083 13.7766C16.674 14.1007 16.4771 14.3951 16.2289 14.643C15.9807 14.8909 15.686 15.0875 15.3618 15.2215C15.0376 15.3554 14.6901 15.4242 14.3393 15.4237H14.3324Z" fill="#333333"/>
</svg>
